inDegrees=yes
name=ik_lifting_orientations
DataType=double
version=3
OpenSimVersion=4.5-2024-01-10-34fd6af
endheader
time	pelvis_tilt	pelvis_list	pelvis_rotation	pelvis_tx	pelvis_ty	pelvis_tz	hip_flexion_r	hip_adduction_r	hip_rotation_r	knee_angle_r	knee_angle_r_beta	ankle_angle_r	subtalar_angle_r	mtp_angle_r	hip_flexion_l	hip_adduction_l	hip_rotation_l	knee_angle_l	knee_angle_l_beta	ankle_angle_l	subtalar_angle_l	mtp_angle_l	lumbar_extension	lumbar_bending	lumbar_rotation	arm_flex_r	arm_add_r	arm_rot_r	elbow_flex_r	pro_sup_r	wrist_flex_r	wrist_dev_r	arm_flex_l	arm_add_l	arm_rot_l	elbow_flex_l	pro_sup_l	wrist_flex_l	wrist_dev_l
5.28	-0.004936970972635797	-0.002903255201586796	90.00219449954567	0	0.9399999998679526	0	44.9640332442613	-10.00024921112712	0	59.91490622105221	1.045712384580995	-5.000013074561206	0	0	44.9640332442613	-10.00024921112712	0	59.91490622105221	1.045712384580995	-5.000013074561206	0	0	-17.82861844773723	-0.667136640478554	62.59120039022753	11.16772266864989	-14.73731501806105	-85.82345562710886	0.7255684580870446	0.5605548145079475	0	0	0	-13.75585274368415	0	89.44925915187461	0.5605548145079475	0	0
5.29	-0.0100627018190848	-0.001133573238494879	90.00151160850595	0	0.9399999998679526	0	44.96408137858245	-10.00024804804519	0	59.91499563951443	1.045713945227572	-5.000012994162473	0	0	44.96408137858245	-10.00024804804519	0	59.91499563951443	1.045713945227572	-5.000012994162473	0	0	-19.63252282153489	-1.259911035666659	66.00244363227854	11.62150788087088	-16.75981546865102	-88.99748573826012	0.7227698160452438	0.5600329028783977	0	0	0	-13.75670472554655	0	89.44977176109157	0.5600329028783977	0	0
5.3	-0.008498022918913536	-0.001751464589666015	90.00296069288413	0	0.9399999998679526	0	44.96412044179458	-10.00024710606928	0	59.91506818322631	1.045715211354196	-5.000012929115206	0	0	44.96412044179458	-10.00024710606928	0	59.91506818322631	1.045715211354196	-5.000012929115206	0	0	-21.56964102469279	-1.773452840687491	68.22177694077247	12.58465401984675	-18.78762403684956	-89.93978373489601	0.7200194727165785	0.5596092905832674	0	0	0	-13.75739626892186	0	89.45018782303535	0.5596092905832674	0	0
5.31	-0.003931362701623365	-0.0003640131817512021	90.00501744848187	0	0.9399999998679526	0	44.964162460213	-10.00024609638759	0	59.91514626135136	1.045716574074552	-5.000012859490164	0	0	44.964162460213	-10.00024609638759	0	59.91514626135136	1.045716574074552	-5.000012859490164	0	0	-23.67556877143601	-2.323847175266771	70.15017923905963	13.92026150873373	-20.97435951456415	-89.97500297424303	0.7024280951035838	0.5591534044362586	0	0	0	-13.7581407417187	0	89.45063558359047	0.5591534044362586	0	0
5.32	-0.003251028424956158	-0.001292469448961792	90.00434084193708	0	0.9399999998679526	0	44.96420571864948	-10.00024506018462	0	59.91522667184526	1.045717977502424	-5.000012788130425	0	0	44.96420571864948	-10.00024506018462	0	59.91522667184526	1.045717977502424	-5.000012788130425	0	0	-26.01762623986547	-3.17326920781832	72.12955632640259	15.62958241005187	-23.39671992824554	-89.98401928243931	0.6851382950960421	0.5586838741116413	0	0	0	-13.75890768984657	0	89.45109674513293	0.5586838741116413	0	0
5.33	-0.01061219840773375	0.005871255132169071	89.9848497235606	0	0.9399999998679526	0	44.96424419185507	-10.00024414253752	0	59.91529827752014	1.045719227257214	-5.000012725031701	0	0	44.96424419185507	-10.00024414253752	0	59.91529827752014	1.045719227257214	-5.000012725031701	0	0	-28.37968646073161	-4.093937082369925	73.64226844759933	17.38695355587191	-25.76072314229985	-89.9869583616286	0.6853898902837869	0.5582659705564701	0	0	0	-13.75959067896739	0	89.45150720008706	0.5582659705564701	0	0
5.34	-0.003018529144242046	0.00248228765371365	89.98951901990536	0	0.9399999998679526	0	44.96428007810886	-10.00024328936135	0	59.91536513723304	1.045720394179341	-5.00001266643287	0	0	44.96428007810886	-10.00024328936135	0	59.91536513723304	1.045720394179341	-5.00001266643287	0	0	-30.52191447920269	-5.052846906161655	74.75969326748178	19.09752034178707	-27.88730888387085	-89.98822250190149	0.6835432188908268	0.557875932100098	0	0	0	-13.76022841567724	0	89.45189028660207	0.557875932100098	0	0
5.35	-0.005149596581660546	0.001909023395617038	89.99271882324852	0	0.9399999998679526	0	44.96431598023496	-10.00024243798033	0	59.91543204494699	1.045721561939244	-5.000012608019632	0	0	44.96431598023496	-10.00024243798033	0	59.91543204494699	1.045721561939244	-5.000012608019632	0	0	-32.71483216055869	-6.102705890186731	75.89063589204176	20.90659358890773	-30.10124272132208	-89.98915892701926	0.6724972602867516	0.5574855937733987	0	0	0	-13.76086677238063	0	89.45227366764247	0.5574855937733987	0	0
5.36	-0.005702792246560645	-0.001471062478909951	90.00646380143931	0	0.9399999998679526	0	44.96434792040979	-10.00024168185687	0	59.91549157092885	1.045722600863618	-5.000012556182317	0	0	44.96434792040979	-10.00024168185687	0	59.91549157092885	1.045722600863618	-5.000012556182317	0	0	-34.69383485685947	-6.930914950936124	76.63954432258488	22.41800206791392	-32.08538488651575	-89.98939842049238	0.6503037263840895	0.5571382641039374	0	0	0	-13.76143485724947	0	89.45261480660062	0.5571382641039374	0	0
5.37	-0.006315630825448496	-0.003486978959355769	90.00831209596579	0	0.9399999998679526	0	44.96437884418525	-10.00024095151355	0	59.91554922070794	1.045723607042076	-5.000012506160695	0	0	44.96437884418525	-10.00024095151355	0	59.91554922070794	1.045723607042076	-5.000012506160695	0	0	-36.58510781047921	-7.848713122288444	77.3414139896507	23.95829915776671	-33.96357584483781	-89.98953026628649	0.6479921445413848	0.5568018808830563	0	0	0	-13.76198514978946	0	89.45294519421667	0.5568018808830563	0	0
5.38	-0.007586714444436985	-0.003933638486589768	90.00877220735487	0	0.9399999998679526	0	44.96440974612334	-10.00024022329606	0	59.91560684243435	1.045724612730923	-5.000012456331039	0	0	44.96440974612334	-10.00024022329606	0	59.91560684243435	1.045724612730923	-5.000012456331039	0	0	-38.48025947032506	-8.808669184608259	78.05368861991022	25.5299689919759	-35.87207740864824	-89.98960465162371	0.6442517619217776	0.5564656420799047	0	0	0	-13.7625352995913	0	89.45327543998907	0.5564656420799047	0	0
5.39	-0.005872282794486586	-0.005845446856577498	90.00645635239148	0	0.9399999998679526	0	44.96443976425788	-10.00023951725305	0	59.91566281059762	1.045725589559648	-5.000012408061878	0	0	44.96443976425788	-10.00023951725305	0	59.91566281059762	1.045725589559648	-5.000012408061878	0	0	-40.36653800959582	-9.795165654786331	78.62546598602857	27.10976484692305	-37.7368610418547	-89.98943849598635	0.6400740758651323	0.5561389682165521	0	0	0	-13.76306983273044	0	89.45359629130476	0.5561389682165521	0	0
5.4	-0.006736040772407602	-0.006146191164101028	90.00474270526172	0	0.9399999998679526	0	44.96447013117029	-10.00023880429271	0	59.91571941303103	1.045726577458476	-5.000012359363788	0	0	44.96447013117029	-10.00023880429271	0	59.91571941303103	1.045726577458476	-5.000012359363788	0	0	-42.04807034073798	-10.67545281651804	79.0199147882491	28.49338240953411	-39.36036118408773	-89.98909733548918	0.6381818257628799	0.5558084674553146	0	0	0	-13.76361062870857	0	89.45392090130893	0.5558084674553146	0	0
5.41	-0.008854513949177606	-7.728007008140341e-06	90.00643159717507	0	0.9399999998679526	0	44.96518417229862	-10.00022225458311	0	59.91703498534601	1.04574953852692	-5.000011251223648	0	0	44.96518417229862	-10.00022225458311	0	59.91703498534601	1.04574953852692	-5.000011251223648	0	0	-43.30657975343364	-11.0134087732553	78.89307747450859	29.18444267068429	-40.41719599424507	-89.98818658432901	0.6346024821790398	0.5481147799970401	0	0	0	-13.77606998854784	0	89.46147745895155	0.5481147799970401	0	0
5.42	-0.00542641277774668	-0.003879040017742295	90.00928278272087	0	0.9399999998679526	0	44.96579485252251	-10.00020844385719	0	59.91815787270188	1.045769136608409	-5.000010342839646	0	0	44.96579485252251	-10.00020844385719	0	59.91815787270188	1.045769136608409	-5.000010342839646	0	0	-44.78157693929944	-11.7966881184779	78.99923717145934	30.38172924865938	-41.72766486770744	-89.9874018094043	0.6374485754096354	0.5415572829028046	0	0	0	-13.78664138055935	0	89.46791807757513	0.5415572829028046	0	0
5.43	-0.007357016840970078	-0.0003922305139904582	90.00594816444699	0	0.9399999998679526	0	44.96580668503436	-10.000208191899	0	59.91818012691374	1.045769525017679	-5.000010326298695	0	0	44.96580668503436	-10.000208191899	0	59.91818012691374	1.045769525017679	-5.000010326298695	0	0	-46.29431953475358	-12.604065115082	79.24920938741049	31.59990437834132	-43.13196452782225	-89.98674982942593	0.6497387692996561	0.5414269276906445	0	0	0	-13.78685625159182	0	89.46804610937028	0.5414269276906445	0	0
5.44	-0.008104819235720652	-0.0004773529430658792	90.00709529645805	0	0.9399999998679526	0	44.96581846073241	-10.00020794132453	0	59.91820227218499	1.045769911525576	-5.000010309854257	0	0	44.96581846073241	-10.00020794132453	0	59.91820227218499	1.045769911525576	-5.000010309854257	0	0	-47.80727274911455	-13.42834586299838	79.45406679565211	32.82956570245018	-44.52687206269107	-89.98591896833419	0.6506345426903123	0.541297192888085	0	0	0	-13.78707010158239	0	89.46817353181392	0.541297192888085	0	0
